# xmcd
#
# Track frame offsets: 
#        150
#        12075
#        38042
#        90003
#        101039
#        112461
#        131361
#
# Disc length: 2308 seconds
#
# Revision: 0
# Processed by: cddbd v1.5.2PL0 Copyright (c) Steve Scherf et al.
# Submitted via: ExactAudioCopy v0.99pb5
#
DISCID=4d090207
DTITLE=Steve Miller Band  - Rock Love - 1971
DYEAR=1900
DGENRE=
TTITLE0=The Gangster Is Back
TTITLE1=Blues Without Blame
TTITLE2=Love Shock
TTITLE3=Let Me Serve You
TTITLE4=Rock Love
TTITLE5=Harbor Lights
TTITLE6=Deliverance
EXTD=
EXTT0=
EXTT1=
EXTT2=
EXTT3=
EXTT4=
EXTT5=
EXTT6=
PLAYORDER=
